<?xml version="1.0" encoding="UTF-8" standalone="no"?>
<svg
   xmlns:dc="http://purl.org/dc/elements/1.1/"
   xmlns:cc="http://creativecommons.org/ns#"
   xmlns:rdf="http://www.w3.org/1999/02/22-rdf-syntax-ns#"
   xmlns:svg="http://www.w3.org/2000/svg"
   xmlns="http://www.w3.org/2000/svg"
   xmlns:xlink="http://www.w3.org/1999/xlink"
   xmlns:sodipodi="http://sodipodi.sourceforge.net/DTD/sodipodi-0.dtd"
   xmlns:inkscape="http://www.inkscape.org/namespaces/inkscape"
   width="70"
   height="70"
   viewBox="0 0 70 70"
   version="1.1"
   id="svg170"
   sodipodi:docname="icon_report.svg"
   inkscape:version="1.0.1 (3bc2e813f5, 2020-09-07)">
  <metadata
     id="metadata174">
    <rdf:RDF>
      <cc:Work
         rdf:about="">
        <dc:format>image/svg+xml</dc:format>
        <dc:type
           rdf:resource="http://purl.org/dc/dcmitype/StillImage" />
        <dc:title></dc:title>
      </cc:Work>
    </rdf:RDF>
  </metadata>
  <sodipodi:namedview
     pagecolor="#ffffff"
     bordercolor="#666666"
     borderopacity="1"
     objecttolerance="10"
     gridtolerance="10"
     guidetolerance="10"
     inkscape:pageopacity="0"
     inkscape:pageshadow="2"
     inkscape:window-width="1536"
     inkscape:window-height="801"
     id="namedview172"
     showgrid="false"
     inkscape:zoom="8.5862966"
     inkscape:cx="52.341975"
     inkscape:cy="29.81725"
     inkscape:window-x="-8"
     inkscape:window-y="-8"
     inkscape:window-maximized="1"
     inkscape:current-layer="g166" />
  <defs
     id="defs147">
    <path
       id="icon-a"
       d="M4,5.35309892e-14 C36.4160122,9.87060235e-15 58.0836068,-3.97961823e-14 65,5.07020818e-14 C69,6.733808e-14 70,1 70,5 C70,43.0488877 70,62.4235458 70,65 C70,69 69,70 65,70 C61,70 9,70 4,70 C1,70 7.10542736e-15,69 7.10542736e-15,65 C7.25721566e-15,62.4676575 3.83358709e-14,41.8005206 3.60818146e-14,5 C-1.13686838e-13,1 1,5.75716207e-14 4,5.35309892e-14 Z" />
    <linearGradient
       id="icon-c"
       x1="100%"
       x2="0%"
       y1="0%"
       y2="100%">
      <stop
         offset="0%"
         stop-color="#CD7690"
         id="stop141" />
      <stop
         offset="100%"
         stop-color="#CA5377"
         id="stop143" />
    </linearGradient>
    <path
       id="icon-d"
       d="M18.0450069,57.225 C16.6239398,57.2249541 15.319401,56.4292666 14.6550625,55.1573449 C12.9601701,51.9125391 12,48.2137078 12,44.2875 C12,31.4261695 22.2974514,21 35,21 C47.7025486,21 58,31.4261695 58,44.2875 C58,48.2137078 57.0398299,51.9125391 55.3449375,55.1573449 C54.6806259,56.4292924 53.3760701,57.2249902 51.9549931,57.225 L18.0450069,57.225 Z M52.8888889,41.7 C51.4775035,41.7 50.3333333,42.8584723 50.3333333,44.2875 C50.3333333,45.7165277 51.4775035,46.875 52.8888889,46.875 C54.3002743,46.875 55.4444444,45.7165277 55.4444444,44.2875 C55.4444444,42.8584723 54.3002743,41.7 52.8888889,41.7 Z M35,28.7625 C36.4113854,28.7625 37.5555556,27.6040277 37.5555556,26.175 C37.5555556,24.7459723 36.4113854,23.5875 35,23.5875 C33.5886146,23.5875 32.4444444,24.7459723 32.4444444,26.175 C32.4444444,27.6040277 33.5886146,28.7625 35,28.7625 Z M17.1111111,41.7 C15.6997257,41.7 14.5555556,42.8584723 14.5555556,44.2875 C14.5555556,45.7165277 15.6997257,46.875 17.1111111,46.875 C18.5224965,46.875 19.6666667,45.7165277 19.6666667,44.2875 C19.6666667,42.8584723 18.5224965,41.7 17.1111111,41.7 Z M22.3506389,28.8925219 C20.9392535,28.8925219 19.7950833,30.0509941 19.7950833,31.4800219 C19.7950833,32.9090496 20.9392535,34.0675219 22.3506389,34.0675219 C23.7620243,34.0675219 24.9061944,32.9090496 24.9061944,31.4800219 C24.9061944,30.0509941 23.7620243,28.8925219 22.3506389,28.8925219 Z M47.6493611,28.8925219 C46.2379757,28.8925219 45.0938056,30.0509941 45.0938056,31.4800219 C45.0938056,32.9090496 46.2379757,34.0675219 47.6493611,34.0675219 C49.0607465,34.0675219 50.2049167,32.9090496 50.2049167,31.4800219 C50.2049167,30.0509941 49.0607465,28.8925219 47.6493611,28.8925219 Z M40.6952153,31.4423414 C39.686809,31.1156695 38.6082049,31.6784508 38.285566,32.6992195 L34.6181042,44.3034293 C31.9739028,44.501373 29.8888889,46.7346281 29.8888889,49.4625 C29.8888889,52.3205555 32.1772292,54.6375 35,54.6375 C37.8227708,54.6375 40.1111111,52.3205555 40.1111111,49.4625 C40.1111111,47.8636676 39.3946771,46.434559 38.269434,45.4852699 L41.9365764,33.8821113 C42.2591354,32.8612617 41.7033819,31.7690133 40.6952153,31.4423414 Z" />
  </defs>
  <g
     fill="none"
     fill-rule="evenodd"
     id="g168">
    <mask
       id="icon-b"
       fill="#fff">
      <use
         xlink:href="#icon-a"
         id="use149" />
    </mask>
    <g
       mask="url(#icon-b)"
       id="g166">
      <rect
         width="70"
         height="70"
         fill="url(#icon-c)"
         id="rect152" />
      <path
         fill="#FFF"
         fill-opacity=".383"
         d="M4,1.8 L65,1.8 C67.6666667,1.8 69.3333333,1.13333333 70,-0.2 C70,2.46666667 70,3.46666667 70,2.8 L1.10547097e-14,2.8 C-1.65952376e-14,3.46666667 -2.9161925e-14,2.46666667 -2.66453526e-14,-0.2 C0.666666667,1.13333333 2,1.8 4,1.8 Z"
         transform="matrix(1 0 0 -1 0 2.8)"
         id="path154" />
      <path
         fill="#393939"
         d="M 4,50 C 2,50 0,49.851312 0,45.836735 V 26.394279 L 17.848928,-9.0606321 c 20.668417,1.9527102 14.364001,8.30338203 21.697334,13.8544024 7.333333,5.5510207 15.315045,3.7257464 15.315045,10.6645217 l -0.38184,19.349786 C 54.477157,34.925113 57.041689,33.643432 40.711111,50 Z"
         opacity="0.324"
         transform="translate(0,20)"
         id="path156"
         sodipodi:nodetypes="ssccscscs" />
      <path
         fill="#000"
         fill-opacity=".383"
         d="M4,4 L65,4 C67.6666667,4 69.3333333,3 70,1 C70,3.66666667 70,5 70,5 L1.77635684e-15,5 C1.77635684e-15,5 1.77635684e-15,3.66666667 1.77635684e-15,1 C0.666666667,3 2,4 4,4 Z"
         transform="translate(0 65)"
         id="path158" />
      <path
         fill="#FFF"
         fill-rule="nonzero"
         d="M18.0450069,55.225 256H96v64h192v-64zm89-151L279.1 7c-4.5-4.5-10.6-7-17-7H256v128h128v-6.1c0-6.3-2.5-12.4-7-16.9zm-153 31V0H24C10.7 0 0 10.7 0 24v464c0 13.3 10.7 24 24 24h336c13.3 0 24-10.7 24-24V160H248c-13.2 0-24-10.8-24-24zM64 72c0-4.42 3.58-8 8-8h80c4.42 0 8 3.58 8 8v16c0 4.42-3.58 8-8 8H72c-4.42 0-8-3.58-8-8V72zm0 64c0-4.42 3.58-8 8-8h80c4.42 0 8 3.58 8 8v16c0 4.42-3.58 8-8 8H72c-4.42 0-8-3.58-8-8v-16zm256 304c0 4.42-3.58 8-8 8h-80c-4.42 0-8-3.58-8-8v-16c0-4.42 3.58-8 8-8h80c4.42 0 8 3.58 8 8v16zm0-200v96c0 8.84-7.16 16-16 16H80c-8.84 0-16-7.16-16-16v-96c0-8.84 7.16-16 16-16h224c8.84 0 16 7.16 16 16z"
         id="path164" />
      <path
         fill="currentColor"
         d="M 44.937566,34.814989 H 25.847605 v 5.915674 h 19.089961 z m 8.848991,-13.957294 -9.73389,-9.058376 c -0.447422,-0.415946 -1.053925,-0.647027 -1.690258,-0.647027 h -0.606504 v 11.83135 h 12.726642 v -0.563839 c 0,-0.582323 -0.248567,-1.146161 -0.69599,-1.562108 z M 38.574246,23.7231 V 11.152292 H 18.68887 c -1.322377,0 -2.386245,0.989026 -2.386245,2.218378 v 42.88864 c 0,1.229352 1.063868,2.218378 2.386245,2.218378 h 33.407432 c 1.322377,0 2.386245,-0.989026 2.386245,-2.218378 V 25.941479 H 40.960491 c -1.312434,0 -2.386245,-0.998271 -2.386245,-2.218379 z m -15.9083,-5.915674 c 0,-0.40855 0.355948,-0.739459 0.795415,-0.739459 h 7.95415 c 0.439468,0 0.795416,0.330909 0.795416,0.739459 v 1.478919 c 0,0.408551 -0.355948,0.739458 -0.795416,0.739458 h -7.95415 c -0.439467,0 -0.795415,-0.330907 -0.795415,-0.739458 z m 0,5.915674 c 0,-0.408551 0.355948,-0.739458 0.795415,-0.739458 h 7.95415 c 0.439468,0 0.795416,0.330907 0.795416,0.739458 v 1.478919 c 0,0.408552 -0.355948,0.73946 -0.795416,0.73946 h -7.95415 c -0.439467,0 -0.795415,-0.330908 -0.795415,-0.73946 z m 25.45328,28.099455 c 0,0.40855 -0.355948,0.739457 -0.795415,0.739457 h -7.95415 c -0.439466,0 -0.795415,-0.330907 -0.795415,-0.739457 v -1.47892 c 0,-0.408551 0.355949,-0.739459 0.795415,-0.739459 h 7.95415 c 0.439467,0 0.795415,0.330908 0.795415,0.739459 z m 0,-18.486483 v 8.873511 c 0,0.817102 -0.711896,1.478918 -1.59083,1.478918 H 24.256775 c -0.878932,0 -1.590829,-0.661816 -1.590829,-1.478918 v -8.873511 c 0,-0.817104 0.711897,-1.47892 1.590829,-1.47892 h 22.271621 c 0.878934,0 1.59083,0.661816 1.59083,1.47892 z"
         id="path241"
         style="opacity:0.3;fill:#000000;stroke-width:0.0958655" />
      <path
         fill="currentColor"
         d="M 45.558953,34.04899 H 26.468992 v 5.915674 h 19.089961 z m 8.848991,-13.957294 -9.73389,-9.058376 c -0.447422,-0.415946 -1.053925,-0.647027 -1.690258,-0.647027 h -0.606504 v 11.83135 h 12.726642 v -0.563839 c 0,-0.582323 -0.248567,-1.146161 -0.69599,-1.562108 z M 39.195633,22.957101 V 10.386293 H 19.310257 c -1.322377,0 -2.386245,0.989026 -2.386245,2.218378 v 42.88864 c 0,1.229352 1.063868,2.218378 2.386245,2.218378 h 33.407432 c 1.322377,0 2.386245,-0.989026 2.386245,-2.218378 V 25.17548 H 41.581878 c -1.312434,0 -2.386245,-0.998271 -2.386245,-2.218379 z m -15.9083,-5.915674 c 0,-0.40855 0.355948,-0.739459 0.795415,-0.739459 h 7.95415 c 0.439468,0 0.795416,0.330909 0.795416,0.739459 v 1.478919 c 0,0.408551 -0.355948,0.739458 -0.795416,0.739458 h -7.95415 c -0.439467,0 -0.795415,-0.330907 -0.795415,-0.739458 z m 0,5.915674 c 0,-0.408551 0.355948,-0.739458 0.795415,-0.739458 h 7.95415 c 0.439468,0 0.795416,0.330907 0.795416,0.739458 v 1.478919 c 0,0.408552 -0.355948,0.73946 -0.795416,0.73946 h -7.95415 c -0.439467,0 -0.795415,-0.330908 -0.795415,-0.73946 z m 25.45328,28.099455 c 0,0.40855 -0.355948,0.739457 -0.795415,0.739457 h -7.95415 c -0.439466,0 -0.795415,-0.330907 -0.795415,-0.739457 v -1.47892 c 0,-0.408551 0.355949,-0.739459 0.795415,-0.739459 h 7.95415 c 0.439467,0 0.795415,0.330908 0.795415,0.739459 z m 0,-18.486483 v 8.873511 c 0,0.817102 -0.711896,1.478918 -1.59083,1.478918 H 24.878162 c -0.878932,0 -1.590829,-0.661816 -1.590829,-1.478918 v -8.873511 c 0,-0.817104 0.711897,-1.47892 1.590829,-1.47892 h 22.271621 c 0.878934,0 1.59083,0.661816 1.59083,1.47892 z"
         id="path241-0"
         style="opacity:1;fill:#ffffff;stroke-width:0.0958655" />
    </g>
  </g>
</svg>
